<svg id="Layer_1" data-name="Layer 1" xmlns="http://www.w3.org/2000/svg" viewBox="0 0 381.65 43.12"><path d="M4.49,42.22H0V2.73H6.17l14,33.77,14-33.77h6.06V42.22H35.78V9.75L22.21,42.22H18.12L4.49,9.8Z"/><path d="M54.57,43a11.46,11.46,0,0,1-5.24-1.1,7.34,7.34,0,0,1-3.2-2.91,8,8,0,0,1-1-4,7.17,7.17,0,0,1,2.64-5.86,16,16,0,0,1,7.74-2.95l5.83-.84a4.65,4.65,0,0,0,2.33-.84,2.21,2.21,0,0,0,.59-1.68,5.22,5.22,0,0,0-1.85-4.13A7.69,7.69,0,0,0,57.21,17a7.31,7.31,0,0,0-4.88,1.51,6,6,0,0,0-2.08,4.15H45.6a10.58,10.58,0,0,1,1.82-5.27,9.4,9.4,0,0,1,4.15-3.28,14.86,14.86,0,0,1,5.81-1.1,14.08,14.08,0,0,1,6.11,1.24,8.9,8.9,0,0,1,3.92,3.45,9.74,9.74,0,0,1,1.35,5.19V42.22H64.22V36.67a11.32,11.32,0,0,1-4,4.6A10.13,10.13,0,0,1,54.57,43Zm1-3.82a8,8,0,0,0,4.55-1.31,8.78,8.78,0,0,0,3-3.65,12.16,12.16,0,0,0,1.1-5.24V27.69a7.5,7.5,0,0,1-1.21.45,10.58,10.58,0,0,1-1.76.34l-4.6.73A11.91,11.91,0,0,0,51.57,31a4.09,4.09,0,0,0-1.77,3.59,4.06,4.06,0,0,0,1.57,3.36A6.55,6.55,0,0,0,55.52,39.13Z"/><path d="M79.42,42.22H74.48V13.9h4.94v4.15a10.58,10.58,0,0,1,3.84-3.71A11.11,11.11,0,0,1,88.78,13a9.51,9.51,0,0,1,7.57,3.08c1.8,2.06,2.7,4.86,2.7,8.42V42.22H94.17V25.11a8.83,8.83,0,0,0-1.69-5.86,6.15,6.15,0,0,0-5-2,7.42,7.42,0,0,0-4.23,1.21,7.79,7.79,0,0,0-2.83,3.47,12.58,12.58,0,0,0-1,5.19Z"/><path d="M117.61,43.12a14.36,14.36,0,0,1-7.4-1.91,13.31,13.31,0,0,1-5.08-5.33,16.39,16.39,0,0,1-1.82-7.8,16.37,16.37,0,0,1,1.82-7.79,13.52,13.52,0,0,1,5.08-5.36,15.11,15.11,0,0,1,14.78,0,13.35,13.35,0,0,1,5,5.36,16.48,16.48,0,0,1,1.8,7.79,16.49,16.49,0,0,1-1.8,7.8,13.15,13.15,0,0,1-5,5.33A14.26,14.26,0,0,1,117.61,43.12Zm0-4.49a8.14,8.14,0,0,0,7.77-5,13.28,13.28,0,0,0,1.09-5.59,13.4,13.4,0,0,0-1.09-5.63,8.14,8.14,0,0,0-7.77-5,8.69,8.69,0,0,0-4.77,1.29,8.4,8.4,0,0,0-3.11,3.67,13.4,13.4,0,0,0-1.09,5.63,13.28,13.28,0,0,0,1.09,5.59,8.4,8.4,0,0,0,3.11,3.67A8.69,8.69,0,0,0,117.61,38.63Z"/><path d="M148.57,42.22h-5.44L131.8,13.84h5.61l8.47,21.82,8.41-21.82h5.61Z"/><path d="M174.14,43.12a14.53,14.53,0,0,1-7.57-1.94,13,13,0,0,1-5-5.38A16.9,16.9,0,0,1,159.79,28a16.69,16.69,0,0,1,1.73-7.68,13.11,13.11,0,0,1,5-5.38,14.2,14.2,0,0,1,7.54-2,13.12,13.12,0,0,1,7.1,1.85A11.87,11.87,0,0,1,185.61,20a18.48,18.48,0,0,1,1.54,7.79c0,.57,0,1.05-.05,1.46H165.39q.29,4.54,2.61,6.85a8.45,8.45,0,0,0,6.2,2.3,7.89,7.89,0,0,0,4.68-1.29,7.05,7.05,0,0,0,2.61-3.65h5.38a11.19,11.19,0,0,1-4.4,7.15A13.84,13.84,0,0,1,174.14,43.12Zm-8.58-17.9h16a7.85,7.85,0,0,0-2.22-5.58,7.4,7.4,0,0,0-5.3-1.93,8.12,8.12,0,0,0-5.66,2A9.29,9.29,0,0,0,165.56,25.22Z"/><path d="M197.32,42.22h-6V13.78h6v4.77a9.27,9.27,0,0,1,3.06-3.7A7.88,7.88,0,0,1,205,13.5q.5,0,.87,0l.81.09v5.66a13.29,13.29,0,0,0-1.74-.11,7,7,0,0,0-5.52,2.35,9.22,9.22,0,0,0-2.11,6.4Z"/><path d="M225.24,43.12a11.27,11.27,0,0,1-5.3-1.27,12.23,12.23,0,0,1-4.12-3.44v3.81h-6.17V1.56h6.17v16a11.88,11.88,0,0,1,4.12-3.51,11.51,11.51,0,0,1,5.36-1.26,12.25,12.25,0,0,1,6.87,2,13.26,13.26,0,0,1,4.68,5.42A17.58,17.58,0,0,1,238.53,28a17.5,17.5,0,0,1-1.68,7.8,13.06,13.06,0,0,1-4.68,5.35A12.5,12.5,0,0,1,225.24,43.12ZM224,37.73a7.82,7.82,0,0,0,4.32-1.18,7.46,7.46,0,0,0,2.83-3.36,12.44,12.44,0,0,0,1-5.16,11,11,0,0,0-2.18-7.18,8,8,0,0,0-11.89,0A10.9,10.9,0,0,0,215.82,28a12.12,12.12,0,0,0,1,5.16A7.45,7.45,0,0,0,224,37.73Z"/><path d="M255.63,43.12a15.05,15.05,0,0,1-7.6-1.91,13.45,13.45,0,0,1-5.22-5.33A16.07,16.07,0,0,1,240.93,28a16.25,16.25,0,0,1,1.88-7.88A13.61,13.61,0,0,1,248,14.76a15.93,15.93,0,0,1,15.2,0,13.33,13.33,0,0,1,5.16,5.39A16.68,16.68,0,0,1,270.21,28a16.41,16.41,0,0,1-1.82,7.8,13.35,13.35,0,0,1-5.16,5.35A14.89,14.89,0,0,1,255.63,43.12Zm0-5.56a7.5,7.5,0,0,0,4.15-1.15,7.29,7.29,0,0,0,2.75-3.31,12.53,12.53,0,0,0,1-5.07,12.73,12.73,0,0,0-1-5.13,7.68,7.68,0,0,0-2.72-3.34,7.43,7.43,0,0,0-4.18-1.18,7.7,7.7,0,0,0-4.24,1.18,7.44,7.44,0,0,0-2.77,3.34,12.56,12.56,0,0,0-1,5.13,12.23,12.23,0,0,0,1,5,7.47,7.47,0,0,0,2.77,3.31A7.69,7.69,0,0,0,255.63,37.56Z"/><path d="M281.47,42.84a11.22,11.22,0,0,1-4.94-1A7.36,7.36,0,0,1,273.36,39a8.25,8.25,0,0,1-1.09-4.27,7.29,7.29,0,0,1,2.63-5.89,16.23,16.23,0,0,1,7.74-3l5.67-.9a3.31,3.31,0,0,0,1.93-.7,2,2,0,0,0,.54-1.49,3.71,3.71,0,0,0-1.49-3,6.21,6.21,0,0,0-4-1.21,6,6,0,0,0-4,1.18,4.79,4.79,0,0,0-1.68,3.14h-6.79a10.68,10.68,0,0,1,1.93-5.41A10.46,10.46,0,0,1,279.17,14a15.45,15.45,0,0,1,6.11-1.18,15,15,0,0,1,6.51,1.32,9.84,9.84,0,0,1,4.2,3.65,10,10,0,0,1,1.46,5.41V42.22h-6.67v-5.1a10.09,10.09,0,0,1-3.85,4.2A10.31,10.31,0,0,1,281.47,42.84Zm2.07-5.33a6.74,6.74,0,0,0,3.79-1.1,7.25,7.25,0,0,0,2.55-3,9.52,9.52,0,0,0,.9-4.18v-1a6.47,6.47,0,0,1-1.07.36,10.63,10.63,0,0,1-1.51.31l-3.71.62A10,10,0,0,0,280.57,31a3.29,3.29,0,0,0-1.46,3,3.23,3.23,0,0,0,1.18,2.61A4.94,4.94,0,0,0,283.54,37.51Z"/><path d="M309.84,42.22h-7.06V13.67h7.06v4.71a9.13,9.13,0,0,1,3-3.73,7.8,7.8,0,0,1,4.55-1.32c.37,0,.69,0,.95,0a7.42,7.42,0,0,1,.9.14v6.68a13.76,13.76,0,0,0-1.91-.11,7,7,0,0,0-5.44,2.24,8.74,8.74,0,0,0-2.08,6.17Z"/><path d="M333.79,43.12a12.55,12.55,0,0,1-6.9-1.94,13,13,0,0,1-4.71-5.35A17.64,17.64,0,0,1,320.5,28a17.79,17.79,0,0,1,1.68-7.88,13.15,13.15,0,0,1,4.71-5.41,12.4,12.4,0,0,1,6.9-2,11.62,11.62,0,0,1,5,1.09,10.94,10.94,0,0,1,4,3.17V1.56h7.29V42.22h-7.29V38.91a11.1,11.1,0,0,1-4,3.11A11.63,11.63,0,0,1,333.79,43.12Zm1.63-6.29a7.08,7.08,0,0,0,3.9-1.06,6.89,6.89,0,0,0,2.55-3.09,11.44,11.44,0,0,0,.9-4.71,10.08,10.08,0,0,0-2-6.59A6.59,6.59,0,0,0,335.42,19,6.66,6.66,0,0,0,330,21.38,10,10,0,0,0,328,28a11.44,11.44,0,0,0,.89,4.71,6.82,6.82,0,0,0,2.58,3.09A7.18,7.18,0,0,0,335.42,36.83Z"/><path d="M369.61,24.07a11.7,11.7,0,0,1-6-1.62,12.08,12.08,0,0,1-4.38-4.4A11.8,11.8,0,0,1,357.58,12a11.64,11.64,0,0,1,1.62-6,12.1,12.1,0,0,1,4.38-4.38,12,12,0,0,1,12.05,0A12.08,12.08,0,0,1,380,6a11.64,11.64,0,0,1,1.62,6A11.8,11.8,0,0,1,380,18.05a12.06,12.06,0,0,1-4.4,4.4A11.74,11.74,0,0,1,369.61,24.07Z"/></svg>